Format                                   : MPEG-4
Format profile                           : Base Media
Codec ID                                 : isom
File size                                : 401 MiB
Duration                                 : 1h 4mn
Overall bit rate mode                    : Variable
Overall bit rate                         : 870 Kbps

Video
ID                                       : 2
Format                                   : AVC
Format/Info                              : Advanced Video Codec
Format profile                           : High@L3.1
Format settings, CABAC                   : Yes
Format settings, ReFrames                : 5 frames
Codec ID                                 : avc1
Codec ID/Info                            : Advanced Video Coding
Duration                                 : 1h 4mn
Source duration                          : 1h 4mn
Bit rate                                 : 750 Kbps
Maximum bit rate                         : 14.7 Mbps
Width                                    : 720 pixels
Height                                   : 404 pixels
Display aspect ratio                     : 16:9
Frame rate mode                          : Constant
Frame rate                               : 23.976 fps
Color space                              : YUV
Chroma subsampling                       : 4:2:0
Bit depth                                : 8 bits
Scan type                                : Progressive
Bits/(Pixel*Frame)                       : 0.108
Stream size                              : 346 MiB (86%)
Source stream size                       : 346 MiB
 SMPTE RP177

Audio
ID                                       : 1
Format                                   : AAC
Format/Info                              : Advanced Audio Codec
Format profile                           : LC
Codec ID                                 : 40
Duration                                 : 1h 4mn
Bit rate mode                            : Variable
Bit rate                                 : 115 Kbps
Maximum bit rate                         : 146 Kbps
Channel(s)                               : 2 channels
Channel positions                        : Front: L R
Sampling rate                            : 48.0 KHz
Compression mode                         : Lossy
Stream size                              : 53.1 MiB (13%)
Encoded date                             : UTC 2013-06-10 02:11:28
Tagged date                              : UTC 2013-06-10 02:11:29

